<svg xmlns="http://www.w3.org/2000/svg" viewBox="0 0 40 40" fill="none">
  <!-- Hat -->
  <ellipse cx="20" cy="9" rx="10" ry="3" fill="#1e3a5f"/>
  <rect x="10" y="7" width="20" height="4" rx="1" fill="#1e3a5f"/>
  <!-- Badge on hat -->
  <polygon points="20,8 21,10 20,11 19,10" fill="#f59e0b"/>
  <!-- Head -->
  <circle cx="20" cy="16" r="6" fill="#f5c5a3"/>
  <!-- Body / Uniform -->
  <path d="M11 28 Q11 23 20 22 Q29 23 29 28 L29 34 L11 34 Z" fill="#1e3a5f"/>
  <!-- Collar / Shirt -->
  <path d="M17 22 L20 26 L23 22" stroke="#fff" stroke-width="1.2" fill="none"/>
  <!-- Badge on chest -->
  <polygon points="20,25 21.5,27.5 20,28.5 18.5,27.5" fill="#f59e0b"/>
  <!-- Arms -->
  <path d="M11 25 Q7 26 7 30" stroke="#1e3a5f" stroke-width="4" stroke-linecap="round" fill="none"/>
  <path d="M29 25 Q33 26 33 30" stroke="#1e3a5f" stroke-width="4" stroke-linecap="round" fill="none"/>
  <!-- Hand / Glove stop gesture -->
  <circle cx="7" cy="31" r="3" fill="#fff" stroke="#ccc" stroke-width="0.5"/>
  <circle cx="33" cy="31" r="3" fill="#f5c5a3"/>
  <!-- Belt -->
  <rect x="11" y="28" width="18" height="2.5" rx="1" fill="#0f172a"/>
  <rect x="19" y="27.5" width="2" height="3.5" rx="0.5" fill="#f59e0b"/>
</svg>
